<?xml version="1.0" encoding="UTF-8" standalone="no"?>
<!-- Generator: Adobe Illustrator 19.0.0, SVG Export Plug-In . SVG Version: 6.00 Build 0)  -->

<svg
   version="1.1"
   id="Layer_1"
   x="0px"
   y="0px"
   viewBox="0 0 128 128"
   xml:space="preserve"
   width="128"
   height="128"
   sodipodi:docname="logo.svg"
   inkscape:version="1.4.4 (dcaf3e7d9e, 2026-05-05)"
   xmlns:inkscape="http://www.inkscape.org/namespaces/inkscape"
   xmlns:sodipodi="http://sodipodi.sourceforge.net/DTD/sodipodi-0.dtd"
   xmlns="http://www.w3.org/2000/svg"
   xmlns:svg="http://www.w3.org/2000/svg"><defs
   id="defs8" /><sodipodi:namedview
   id="namedview8"
   pagecolor="#ffffff"
   bordercolor="#000000"
   borderopacity="0.25"
   inkscape:showpageshadow="2"
   inkscape:pageopacity="0.0"
   inkscape:pagecheckerboard="0"
   inkscape:deskcolor="#d1d1d1"
   inkscape:zoom="2.265625"
   inkscape:cx="256"
   inkscape:cy="256"
   inkscape:window-width="3440"
   inkscape:window-height="1371"
   inkscape:window-x="0"
   inkscape:window-y="0"
   inkscape:window-maximized="1"
   inkscape:current-layer="Layer_1" />
<g
   id="g8"
   transform="matrix(0.25,0,0,0.25,0.153,0)">
	<path
   style="fill:#59a7ff"
   d="M 453.822,29.916 C 450.387,28.694 368.406,0 256,0 143.594,0 61.613,28.694 58.178,29.916 c -5.979,2.126 -9.974,7.786 -9.974,14.133 v 374.258 c 0,5.433 2.938,10.44 7.68,13.092 1.455,0.814 36.114,20.152 77.795,39.82 C 191.024,498.279 232.18,512 256,512 c 23.82,0 64.976,-13.721 122.321,-40.781 41.681,-19.668 76.34,-39.006 77.795,-39.82 4.742,-2.651 7.68,-7.659 7.68,-13.092 V 44.049 c 0,-6.347 -3.994,-12.007 -9.974,-14.133 z"
   id="path1" />
	<path
   style="fill:#316196"
   d="M 453.822,29.916 C 450.387,28.694 368.406,0 256,0 v 512 c 23.82,0 64.976,-13.721 122.321,-40.781 41.681,-19.668 76.34,-39.006 77.795,-39.82 4.742,-2.651 7.68,-7.659 7.68,-13.092 V 44.049 c 0,-6.347 -3.994,-12.007 -9.974,-14.133 z"
   id="path2" />
	<path
   style="fill:#f0f1f5"
   d="m 256,87.042 c -42.834,0 -77.558,34.724 -77.558,77.558 v 52.007 h 50 V 164.6 c 0,-15.195 12.362,-27.558 27.558,-27.558 15.196,0 27.558,12.362 27.558,27.558 v 52.007 h 50 V 164.6 c 0,-42.834 -34.724,-77.558 -77.558,-77.558 z"
   id="path3" />
	<path
   style="fill:#bbbec7"
   d="m 256,87.042 v 50 c 15.195,0 27.558,12.362 27.558,27.558 v 52.007 h 50 V 164.6 c 0,-42.834 -34.724,-77.558 -77.558,-77.558 z"
   id="path4" />
	<path
   style="fill:#ffbd59"
   d="M 362.488,208.298 H 149.512 c -8.284,0 -15,6.716 -15,15 v 152.435 c 0,8.284 6.716,15 15,15 h 212.977 c 8.284,0 15,-6.716 15,-15 V 223.298 c -10e-4,-8.284 -6.717,-15 -15.001,-15 z"
   id="path5" />
	<path
   style="fill:#ff8036"
   d="M 362.488,208.298 H 256 v 182.435 h 106.488 c 8.284,0 15,-6.716 15,-15 V 223.298 c 0,-8.284 -6.716,-15 -15,-15 z"
   id="path6" />
	<path
   style="fill:#59a7ff"
   d="m 256,263.064 c -8.284,0 -15,6.716 -15,15 v 43.628 c 0,8.284 6.716,15 15,15 8.284,0 15,-6.716 15,-15 v -43.628 c 0,-8.284 -6.716,-15 -15,-15 z"
   id="path7" />
	<path
   style="fill:#316196"
   d="m 256,263.064 v 73.628 c 8.284,0 15,-6.716 15,-15 v -43.628 c 0,-8.284 -6.716,-15 -15,-15 z"
   id="path8" />
</g>















</svg>
